PathFileType	4	(X/Y/Z)	3_coords_data.trc
DataRate	CameraRate	NumFrames	NumMarkers	Units	OrigDataRate	OrigDataStartFrame	OrigNumFrames
30.0	30.0	8	21	m	30.0	30	78
Frame#	Time	THUMB_TIP	THUMB_IP	THUMB_MCP	THUMB_CMC	INDEX_TIP	INDEX_DIP	INDEX_PIP	INDEX_MCP	MIDDLE_TIP	MIDDLE_DIP	MIDDLE_PIP	MIDDLE_MCP	RING_TIP	RING_DIP	RING_PIP	RING_MCP	PINKY_TIP	PINKY_DIP	PINKY_PIP	PINKY_MCP	WRIST
X1	Y1	Z1	X2	Y2	Z2	X3	Y3	Z3	X4	Y4	Z4	X5	Y5	Z5	X6	Y6	Z6	X7	Y7	Z7	X8	Y8	Z8	X9	Y9	Z9	X10	Y10	Z10	X11	Y11	Z11	X12	Y12	Z12	X13	Y13	Z13	X14	Y14	Z14	X15	Y15	Z15	X16	Y16	Z16	X17	Y17	Z17	X18	Y18	Z18	X19	Y19	Z19	X20	Y20	Z20	X21	Y21	Z21
28	0.9666666666666625	0.4701888947839239	-0.022992999735687247	-0.1721539554155211	0.4794787480179489	-0.022318847845715473	-0.15114814321700026	0.4755269510524678	-0.026720717741459787	-0.1205895627171708	0.47733129207905356	-0.02710949930911255	-0.0760195817619087	0.5007411949310769	-0.0165199093580799	-0.09960727371419464	0.5185775195233375	-0.01937665892150009	-0.0983017060325253	0.5354206096261802	-0.0040677499600209055	-0.10897679175567831	0.4982355160445133	0.014116313969647742	-0.11898902069455064	0.5003069645590821	-0.016833991640110568	-0.08170215379754897	0.5182503566076924	-0.01685500003671514	-0.07924568469797988	0.5374684429307602	0.0027328155081668415	-0.08906363714534904	0.5027458048318816	0.02830928601737026	-0.10073970158274215	0.5004192756323632	-0.0038578521994614423	-0.0702751050599465	0.5179290738835735	-0.0028115154160129885	-0.0661143185312335	0.5348926114153182	0.01471188955093028	-0.07114906299084656	0.5039967984325555	0.038705439756536064	-0.08137056594614767	0.49915666231013167	-0.0019893455347770317	-0.056432499495555066	0.5153706178118557	-0.0010701468609078946	-0.05102299667310728	0.5266913657969673	0.01659770094459123	-0.05172998887908464	0.5002583510233178	0.03991713842330691	-0.05937086688179494	0.4622830810018608	-0.023011742144276925	-0.051989820119430985
29	0.9999999999999956	0.4702841966793637	-0.022922774276053604	-0.17216745580781578	0.4795503281779838	-0.022281802410981544	-0.15115013052322102	0.47555121075879725	-0.026683431108844413	-0.12059767195318594	0.4773246433878663	-0.02709252373968185	-0.07602663225329165	0.5007291214839636	-0.016580983188565934	-0.09961779549341732	0.5185857579773293	-0.019327125909441745	-0.09835318753029898	0.5354165151642608	-0.003986840119628354	-0.10900265124456199	0.4982066441263402	0.014167952337404088	-0.11897587049329938	0.5003679187416117	-0.01701939522712459	-0.08170760730039606	0.5183044750091069	-0.016834126233965407	-0.07920848252096846	0.5375389061773574	0.0027374631184424736	-0.0890267867459631	0.5028009462876452	0.02828601332184577	-0.1007183925469185	0.5004890338395342	-0.004057930926316122	-0.07031250645640597	0.5179764522461023	-0.00288833074047401	-0.06609086780785978	0.5349138592285467	0.014664078044985707	-0.07111253780290716	0.5040434327765778	0.038681770795281456	-0.08135402400491809	0.49927820815476376	-0.001965703975069455	-0.05637286285760368	0.5155086746012757	-0.00116299203434711	-0.05099442326336523	0.5268025718931811	0.016523112952134933	-0.051673829891995315	0.5003837683883243	0.039841888705009376	-0.059365706760414416	0.4622830810018609	-0.023011742144276925	-0.051989820119430985
30	1.0333333333333288	0.4703421024123394	-0.02284428319040821	-0.17219211343150959	0.47957977535848073	-0.022197309550602062	-0.15116244810726992	0.4755387151169008	-0.02663685984738562	-0.12062099717110375	0.4772945768247342	-0.027068553229327885	-0.07604947497938408	0.5006836718057528	-0.016559335598336777	-0.09961167869087773	0.5185544570210557	-0.019229286268799273	-0.09838432413501219	0.5353843663055143	-0.003891446614788796	-0.10903865007449609	0.4981516730763583	0.014242970443051006	-0.11896364714632923	0.5003954423761415	-0.01703986347954889	-0.08171560106793696	0.5183259023119553	-0.016720604082151036	-0.07918643521189894	0.5375830918396438	0.002823473608094207	-0.08901492587589965	0.5027987222043526	0.02831792103456665	-0.10068663099958441	0.5005362509987928	-0.004161330363453675	-0.07033738524064526	0.5180064779167444	-0.002927447918826598	-0.06606319460987953	0.5349097609138227	0.014662422640995043	-0.0710687371987907	0.5040519951475313	0.03869267256715381	-0.08131891838738636	0.4992797991530791	-0.001957613041884909	-0.0563477998765024	0.515515804613733	-0.0011919064346014308	-0.050980694504593305	0.5268256585480571	0.01648495761542268	-0.05163468253294179	0.5004247965557996	0.03982023302279847	-0.05933811415318091	0.4622830810018608	-0.023011742144276925	-0.051989820119430985
31	1.0666666666666622	0.47041546596066897	-0.022779065057660475	-0.17218635995622633	0.47964559819762154	-0.022176308852097093	-0.15115207024050203	0.47558751221180984	-0.02661714438023821	-0.12061306374153824	0.4773112836730523	-0.027060481575005846	-0.07604040324116945	0.5007214285304933	-0.01654927784273763	-0.09959378640118177	0.5185943934014621	-0.0192191025005658	-0.0983983103380276	0.5354221396157582	-0.003857079756329207	-0.10902116530045647	0.4981803195380423	0.014263750158815425	-0.11893673157200335	0.500491485166956	-0.01719001524770858	-0.08171263356645042	0.5184139785863013	-0.016752980317198185	-0.07914490497817728	0.5376859151382879	0.002778094146657528	-0.0889703383947511	0.5029001174261198	0.028261754100722736	-0.10066132953638252	0.500689858561453	-0.004306417341474744	-0.07040146801082037	0.5181322224828748	-0.0029719877810002737	-0.06604449215814279	0.5350283693107036	0.014622175501146972	-0.07105903299191707	0.5041531198954027	0.03864075124897881	-0.0812838961493697	0.49937452160587525	-0.0019726518479310506	-0.056346232063590684	0.515603341166562	-0.0012230414663997324	-0.05095517465872379	0.5268786264805124	0.0164754083774461	-0.05162213283873862	0.500464280737023	0.039798969529481254	-0.059314810209503466	0.4622830810018608	-0.023011742144276925	-0.051989820119430985
32	1.0999999999999952	0.47046271835540676	-0.0227182452649749	-0.1722165958234082	0.47965483811230714	-0.02209277666381748	-0.1511663292359332	0.4756033456281461	-0.026589706291155646	-0.12063465662243955	0.47728579079682654	-0.02703584806161119	-0.07606044506715759	0.5006608044629755	-0.016567354404152468	-0.09960138043220679	0.5185431747393414	-0.019176167217563544	-0.09841187254928929	0.535407455159323	-0.003855791169081302	-0.10903693521495439	0.4981745308198029	0.014301772664319201	-0.11891865140008928	0.5005241629519986	-0.01729709476917285	-0.08168642211814492	0.518440709400931	-0.016777046647238225	-0.07909279275099901	0.5377172343678231	0.0027453617836639133	-0.08892644437477704	0.5029458909461375	0.02823150069595992	-0.10065497032624893	0.5007853415071047	-0.00445665206511936	-0.07040636550089996	0.5182231148755284	-0.003097043764796692	-0.06603881181248517	0.535065156972805	0.014554843835406173	-0.0710324538844973	0.5042173022946997	0.0385986960180571	-0.08128056922232063	0.4994780129759725	-0.0019961231304838067	-0.056340738613154584	0.5156985069670074	-0.001301107778249988	-0.05091740676391643	0.5269030293698099	0.016442896962807763	-0.05156624609257554	0.5005077160450083	0.039774191836154604	-0.05930068628036489	0.4622830810018609	-0.023011742144276925	-0.051989820119430985
33	1.1333333333333284	0.47051378085413464	-0.022720001717599025	-0.17220483891696647	0.4796798265113087	-0.022085418496739395	-0.15114347829742425	0.47562592868927445	-0.026583129394663008	-0.12061224004662274	0.4773142958421336	-0.02706017484100942	-0.07603857243895029	0.5006945236497617	-0.01673554513355391	-0.09963201638777097	0.5185965511676781	-0.019192645913542417	-0.09841543654873608	0.5354743008273876	-0.003891221976028425	-0.10904642074158721	0.49823819073344033	0.01427560612968648	-0.1188990628059704	0.5004581654360085	-0.01728398968132905	-0.08173513088865791	0.5183677054285755	-0.016711727827062206	-0.07910437175396023	0.5377496193313538	0.002700962608145452	-0.08894807093323698	0.5029865352411595	0.028216775898069035	-0.10063649160036925	0.5008934821282821	-0.004408519378163445	-0.07034231025910276	0.5183584809331928	-0.0031907988719112046	-0.06604219706139225	0.5351450679353069	0.014517386008522926	-0.07102322748298351	0.5042908700443908	0.03855439234430702	-0.08126830595616608	0.4995920612637873	-0.0019775289893367853	-0.05638105345861877	0.5158040428096466	-0.001370208021928443	-0.050921857950188665	0.5269724602197083	0.016397674138690865	-0.05153897631888171	0.5005817458351035	0.03973118929260877	-0.0592824068139588	0.4622830810018608	-0.023011742144276925	-0.051989820119430985
34	1.1666666666666616	0.4704619925328888	-0.022698931890138163	-0.17220146128768954	0.4796284540788811	-0.022028411534548042	-0.15114139516294572	0.4756227719560646	-0.026554741269521953	-0.12060802243962487	0.4773216120366436	-0.027054227987907575	-0.07603499858663965	0.5005874141599514	-0.016859709468799444	-0.09965610610382314	0.5185120273614252	-0.01913395788908956	-0.0984167370303195	0.5354620033735079	-0.003889407957100355	-0.10901446525673253	0.4982425986374671	0.014304241375562077	-0.11888072741901567	0.5005171416089934	-0.01727849184263419	-0.08176208283726638	0.5184210304091126	-0.016655030460373865	-0.07910462884184255	0.5378312011600414	0.0027342078316010543	-0.0889388680028963	0.5030293080865782	0.028202256590576957	-0.10061596746781787	0.5008933635072956	-0.004098439882270766	-0.0702474297945902	0.5184024405999283	-0.0032072504789441014	-0.06604766779994742	0.5351644817598579	0.014528751533940953	-0.07101236192464111	0.5043008730945857	0.03856181061129105	-0.08123833696575755	0.49955605822623983	-0.0019803970351413014	-0.056397033372162064	0.5157629999468039	-0.0013442833123761266	-0.05092616512315884	0.5269495605674889	0.016412925062781802	-0.0515215063706459	0.5005584493753045	0.039748204201199955	-0.05925826593611461	0.4622830810018609	-0.023011742144276925	-0.051989820119430985
35	1.1999999999999948	0.47013041659672594	-0.022503279553717004	-0.1721458095737335	0.4794530229383974	-0.021861510712694043	-0.15115349803467432	0.475614098902141	-0.02649903572647938	-0.12061539030039636	0.477318990504657	-0.027017327291885995	-0.07604281220043774	0.5005180405080177	-0.016803788016684362	-0.0997023277859429	0.5184396895258558	-0.019072855772608754	-0.09841165819210806	0.5354349774469682	-0.0038708347934015563	-0.10899790302331425	0.4982238022629374	0.014334270444153918	-0.1188740702309361	0.5005249706441786	-0.017271140207489988	-0.08176684134566825	0.5184233534370754	-0.0166502083023502	-0.07907196899839242	0.5378714457583742	0.0027067047342590467	-0.08889496104539041	0.5030821257984575	0.02818261695292157	-0.10059235538573585	0.5009070259173483	-0.004083793489862653	-0.07016455961901202	0.5184353646935561	-0.0032639542075594274	-0.06603113448993458	0.5351694225368695	0.014501605294988673	-0.07098453561018148	0.5043242879541293	0.0385525969104743	-0.08122408193238217	0.4995081802369944	-0.002066040927042323	-0.056489005877082166	0.5156934964840955	-0.0012725792173824413	-0.05097484624059878	0.5268907443612474	0.016478413706810136	-0.05155442296794832	0.5004753580613454	0.039799716444636424	-0.05925037360692753	0.4622830810018609	-0.023011742144276925	-0.051989820119430985
